const uint16_t melody[] PROGMEM = {
 NOTE_FS6,214, NOTE_GS6,107, NOTE_REST,107, NOTE_CS6,107, NOTE_DS6,214, NOTE_B5,53, NOTE_REST,53, NOTE_D6,107,
 NOTE_CS6,107, NOTE_B5,107, NOTE_REST,107, NOTE_B5,107, NOTE_REST,107, NOTE_CS6,214, NOTE_D6,107, NOTE_REST,107,
 NOTE_D6,53, NOTE_REST,53, NOTE_CS6,53, NOTE_REST,53, NOTE_B5,107, NOTE_CS6,107, NOTE_DS6,107, NOTE_FS6,107,
 NOTE_GS6,107, NOTE_DS6,107, NOTE_FS6,107, NOTE_CS6,107, NOTE_D6,107, NOTE_B5,107, NOTE_CS6,107, NOTE_B5,107,
 NOTE_DS6,214, NOTE_FS6,107, NOTE_REST,107, NOTE_GS6,107, NOTE_DS6,107, NOTE_FS6,107, NOTE_CS6,107, NOTE_D6,107,
 NOTE_B5,107, NOTE_CS6,107, NOTE_DS6,107, NOTE_D6,107, NOTE_CS6,107, NOTE_B5,107, NOTE_CS6,107, NOTE_D6,107,
 NOTE_REST,107, NOTE_B5,107, NOTE_CS6,107, NOTE_D6,107, NOTE_FS6,107, NOTE_CS6,107, NOTE_D6,107, NOTE_CS6,107,
 NOTE_B5,107, NOTE_CS6,107, NOTE_REST,107, NOTE_B5,107, NOTE_REST,107, NOTE_CS6,107, NOTE_REST,107, NOTE_FS6,214,
 NOTE_GS6,107, NOTE_REST,107, NOTE_CS6,107, NOTE_DS6,214, NOTE_B5,53, NOTE_REST,53, NOTE_D6,107, NOTE_CS6,107,
 NOTE_B5,107, NOTE_REST,107, NOTE_B5,107, NOTE_REST,107, NOTE_CS6,214, NOTE_D6,107, NOTE_REST,107, NOTE_D6,53,
 NOTE_REST,53, NOTE_CS6,53, NOTE_REST,53, NOTE_B5,107, NOTE_CS6,107, NOTE_DS6,107, NOTE_FS6,107, NOTE_GS6,107,
 NOTE_DS6,107, NOTE_FS6,107, NOTE_CS6,107, NOTE_D6,107, NOTE_B5,107, NOTE_CS6,107, NOTE_B5,107, NOTE_DS6,214,
 NOTE_FS6,107, NOTE_REST,107, NOTE_GS6,107, NOTE_DS6,107, NOTE_FS6,107, NOTE_CS6,107, NOTE_D6,107, NOTE_B5,107,
 NOTE_CS6,107, NOTE_DS6,107, NOTE_D6,107, NOTE_CS6,107, NOTE_B5,107, NOTE_CS6,107, NOTE_D6,107, NOTE_REST,107,
 NOTE_B5,107, NOTE_CS6,107, NOTE_D6,107, NOTE_FS6,107, NOTE_CS6,107, NOTE_D6,107, NOTE_CS6,107, NOTE_B5,107,
 NOTE_CS6,214, NOTE_B5,107, NOTE_REST,107, NOTE_B5,107, NOTE_REST,107, NOTE_B5,107, NOTE_REST,107, NOTE_FS5,107,
 NOTE_GS5,107, NOTE_B5,107, NOTE_REST,107, NOTE_FS5,107, NOTE_GS5,107, NOTE_B5,107, NOTE_CS6,107, NOTE_DS6,107,
 NOTE_CS6,107, NOTE_E6,107, NOTE_DS6,107, NOTE_E6,107, NOTE_FS6,107, NOTE_B5,107, NOTE_REST,107, NOTE_B5,107,
 NOTE_REST,107, NOTE_FS5,107, NOTE_GS5,107, NOTE_B5,107, NOTE_GS5,107, NOTE_E6,107, NOTE_DS6,107, NOTE_CS6,107,
 NOTE_B5,107, NOTE_FS5,107, NOTE_DS5,107, NOTE_E5,107, NOTE_FS5,107, NOTE_B5,107, NOTE_REST,107, NOTE_FS5,107,
 NOTE_GS5,107, NOTE_B5,107, NOTE_REST,107, NOTE_FS5,107, NOTE_GS5,107, NOTE_B5,107, NOTE_B5,107, NOTE_CS6,107,
 NOTE_DS6,107, NOTE_B5,107, NOTE_FS5,107, NOTE_GS5,107, NOTE_FS5,107, NOTE_B5,214, NOTE_B5,107, NOTE_AS5,107,
 NOTE_B5,107, NOTE_FS5,107, NOTE_GS5,107, NOTE_B5,107, NOTE_E6,107, NOTE_DS6,107, NOTE_E6,107, NOTE_FS6,107,
 NOTE_B5,107, NOTE_REST,107, NOTE_AS5,107, NOTE_REST,107, NOTE_B5,107, NOTE_REST,107, NOTE_FS5,107, NOTE_GS5,107,
 NOTE_B5,107, NOTE_REST,107, NOTE_FS5,107, NOTE_GS5,107, NOTE_B5,107, NOTE_CS6,107, NOTE_DS6,107, NOTE_CS6,107,
 NOTE_E6,107, NOTE_DS6,107, NOTE_E6,107, NOTE_FS6,107, NOTE_B5,107, NOTE_REST,107, NOTE_B5,107, NOTE_REST,107,
 NOTE_FS5,107, NOTE_GS5,107, NOTE_B5,107, NOTE_GS5,107, NOTE_E6,107, NOTE_DS6,107, NOTE_CS6,107, NOTE_B5,107,
 NOTE_FS5,107, NOTE_DS5,107, NOTE_E5,107, NOTE_FS5,107, NOTE_B5,107, NOTE_REST,107, NOTE_FS5,107, NOTE_GS5,107,
 NOTE_B5,107, NOTE_REST,107, NOTE_FS5,107, NOTE_GS5,107, NOTE_B5,107, NOTE_B5,107, NOTE_CS6,107, NOTE_DS6,107,
 NOTE_B5,107, NOTE_FS5,107, NOTE_GS5,107, NOTE_FS5,107, NOTE_B5,214, NOTE_B5,107, NOTE_AS5,107, NOTE_B5,107,
 NOTE_FS5,107, NOTE_GS5,107, NOTE_B5,107, NOTE_E6,107, NOTE_DS6,107, NOTE_E6,107, NOTE_FS6,107, NOTE_B5,214,
 NOTE_CS6,214, NOTE_FS6,214, NOTE_GS6,107, NOTE_REST,107, NOTE_CS6,107, NOTE_DS6,214, NOTE_B5,53, NOTE_REST,53,
 NOTE_D6,107, NOTE_CS6,107, NOTE_B5,107, NOTE_REST,107, NOTE_B5,107, NOTE_REST,107, NOTE_CS6,214, NOTE_D6,107,
 NOTE_REST,107, NOTE_D6,53, NOTE_REST,53, NOTE_CS6,53, NOTE_REST,53, NOTE_B5,107, NOTE_CS6,107, NOTE_DS6,107,
 NOTE_FS6,107, NOTE_GS6,107, NOTE_DS6,107, NOTE_FS6,107, NOTE_CS6,107, NOTE_D6,107, NOTE_B5,107, NOTE_CS6,107,
 NOTE_B5,107, NOTE_DS6,214, NOTE_FS6,107, NOTE_REST,107, NOTE_GS6,107, NOTE_DS6,107, NOTE_FS6,107, NOTE_CS6,107,
 NOTE_D6,107, NOTE_B5,107, NOTE_CS6,107, NOTE_DS6,107, NOTE_D6,107, NOTE_CS6,107, NOTE_B5,107, NOTE_CS6,107,
 NOTE_D6,107, NOTE_REST,107, NOTE_B5,107, NOTE_CS6,107, NOTE_D6,107, NOTE_FS6,107, NOTE_CS6,107, NOTE_D6,107,
 NOTE_CS6,107, NOTE_B5,107, NOTE_CS6,107, NOTE_REST,107, NOTE_B5,107, NOTE_REST,107, NOTE_CS6,107, NOTE_REST,107,
 NOTE_FS6,214, NOTE_GS6,107, NOTE_REST,107, NOTE_CS6,107, NOTE_DS6,214, NOTE_B5,53, NOTE_REST,53, NOTE_D6,107,
 NOTE_CS6,107, NOTE_B5,107, NOTE_REST,107, NOTE_B5,107, NOTE_REST,107, NOTE_CS6,214, NOTE_D6,107, NOTE_REST,107,
 NOTE_D6,53, NOTE_REST,53, NOTE_CS6,53, NOTE_REST,53, NOTE_B5,107, NOTE_CS6,107, NOTE_DS6,107, NOTE_FS6,107,
 NOTE_GS6,107, NOTE_DS6,107, NOTE_FS6,107, NOTE_CS6,107, NOTE_D6,107, NOTE_B5,107, NOTE_CS6,107, NOTE_B5,107,
 NOTE_DS6,214, NOTE_FS6,107, NOTE_REST,107, NOTE_GS6,107, NOTE_DS6,107, NOTE_FS6,107, NOTE_CS6,107, NOTE_D6,107,
 NOTE_B5,107, NOTE_CS6,107, NOTE_DS6,107, NOTE_D6,107, NOTE_CS6,107, NOTE_B5,107, NOTE_CS6,107, NOTE_D6,107,
 NOTE_REST,107, NOTE_B5,107, NOTE_CS6,107, NOTE_D6,107, NOTE_FS6,107, NOTE_CS6,107, NOTE_D6,107, NOTE_CS6,107,
 NOTE_B5,107, NOTE_CS6,214, NOTE_B5,107, NOTE_REST,107, NOTE_B5,107, NOTE_REST,107, NOTE_B5,107, NOTE_REST,107,
 NOTE_FS5,107, NOTE_GS5,107, NOTE_B5,107, NOTE_REST,107, NOTE_FS5,107, NOTE_GS5,107, NOTE_B5,107, NOTE_CS6,107,
 NOTE_DS6,107, NOTE_CS6,107, NOTE_E6,107, NOTE_DS6,107, NOTE_E6,107, NOTE_FS6,107, NOTE_B5,107, NOTE_REST,107,
 NOTE_B5,107, NOTE_REST,107, NOTE_FS5,107, NOTE_GS5,107, NOTE_B5,107, NOTE_GS5,107, NOTE_E6,107, NOTE_DS6,107,
 NOTE_CS6,107, NOTE_B5,107, NOTE_FS5,107, NOTE_DS5,107, NOTE_E5,107, NOTE_FS5,107, NOTE_B5,107, NOTE_REST,107,
 NOTE_FS5,107, NOTE_GS5,107, NOTE_B5,107, NOTE_REST,107, NOTE_FS5,107, NOTE_GS5,107, NOTE_B5,107, NOTE_B5,107,
 NOTE_CS6,107, NOTE_DS6,107, NOTE_B5,107, NOTE_FS5,107, NOTE_GS5,107, NOTE_FS5,107, NOTE_B5,214, NOTE_B5,107,
 NOTE_AS5,107, NOTE_B5,107, NOTE_FS5,107, NOTE_GS5,107, NOTE_B5,107, NOTE_E6,107, NOTE_DS6,107, NOTE_E6,107,
 NOTE_FS6,107, NOTE_B5,107, NOTE_REST,107, NOTE_AS5,107, NOTE_REST,107, NOTE_B5,107, NOTE_REST,107, NOTE_FS5,107,
 NOTE_GS5,107, NOTE_B5,107, NOTE_REST,107, NOTE_FS5,107, NOTE_GS5,107, NOTE_B5,107, NOTE_CS6,107, NOTE_DS6,107,
 NOTE_CS6,107, NOTE_E6,107, NOTE_DS6,107, NOTE_E6,107, NOTE_FS6,107, NOTE_B5,107, NOTE_REST,107, NOTE_B5,107,
 NOTE_REST,107, NOTE_FS5,107, NOTE_GS5,107, NOTE_B5,107, NOTE_GS5,107, NOTE_E6,107, NOTE_DS6,107, NOTE_CS6,107,
 NOTE_B5,107, NOTE_FS5,107, NOTE_DS5,107, NOTE_E5,107, NOTE_FS5,107, NOTE_B5,107, NOTE_REST,107, NOTE_FS5,107,
 NOTE_GS5,107, NOTE_B5,107, NOTE_REST,107, NOTE_FS5,107, NOTE_GS5,107, NOTE_B5,107, NOTE_B5,107, NOTE_CS6,107,
 NOTE_DS6,107, NOTE_B5,107, NOTE_FS5,107, NOTE_GS5,107, NOTE_FS5,107, NOTE_B5,214, NOTE_B5,107, NOTE_AS5,107,
 NOTE_B5,107, NOTE_FS5,107, NOTE_GS5,107, NOTE_B5,107, NOTE_E6,107, NOTE_DS6,107, NOTE_E6,107, NOTE_FS6,107,
 NOTE_B5,214, NOTE_CS6,214, NOTE_E4,214, NOTE_E5,214, NOTE_FS4,214, NOTE_FS5,214, NOTE_DS4,214, NOTE_DS5,214,
 NOTE_GS4,214, NOTE_GS5,214, NOTE_CS4,214, NOTE_CS5,214, NOTE_FS4,214, NOTE_FS5,214, NOTE_B3,214, NOTE_B4,214,
 NOTE_B3,214, NOTE_B4,214, NOTE_E4,214, NOTE_E5,214, NOTE_FS4,214, NOTE_FS5,214, NOTE_DS4,214, NOTE_DS5,214,
 NOTE_GS4,214, NOTE_GS5,214, NOTE_CS4,214, NOTE_CS5,214, NOTE_FS4,214, NOTE_FS5,214, NOTE_B3,214, NOTE_B4,214,
 NOTE_B3,214, NOTE_B4,214, NOTE_E4,214, NOTE_E5,214, NOTE_FS4,214, NOTE_FS5,214, NOTE_DS4,214, NOTE_DS5,214,
 NOTE_GS4,214, NOTE_GS5,214, NOTE_CS4,214, NOTE_CS5,214, NOTE_FS4,214, NOTE_FS5,214, NOTE_B3,214, NOTE_B4,214,
 NOTE_B3,214, NOTE_B4,214, NOTE_E4,214, NOTE_E5,214, NOTE_FS4,214, NOTE_FS5,214, NOTE_DS4,214, NOTE_DS5,214,
 NOTE_GS4,214, NOTE_GS5,214, NOTE_CS4,214, NOTE_CS5,214, NOTE_FS4,214, NOTE_FS5,214, NOTE_B3,214, NOTE_B4,214,
 NOTE_B3,214, NOTE_B4,214, NOTE_E4,214, NOTE_GS4,214, NOTE_B4,214, NOTE_E5,214, NOTE_DS4,214, NOTE_FS4,214,
 NOTE_B4,214, NOTE_DS5,214, NOTE_CS4,214, NOTE_E4,214, NOTE_GS4,214, NOTE_B4,214, NOTE_B3,214, NOTE_DS4,214,
 NOTE_FS4,214, NOTE_B4,214, NOTE_E4,214, NOTE_GS4,214, NOTE_B4,214, NOTE_E5,214, NOTE_DS4,214, NOTE_FS4,214,
 NOTE_B4,214, NOTE_DS5,214, NOTE_CS4,214, NOTE_E4,214, NOTE_GS4,214, NOTE_B4,214, NOTE_B3,214, NOTE_DS4,214,
 NOTE_FS4,214, NOTE_B4,214, NOTE_E4,214, NOTE_GS4,214, NOTE_B4,214, NOTE_E5,214, NOTE_DS4,214, NOTE_FS4,214,
 NOTE_B4,214, NOTE_DS5,214, NOTE_CS4,214, NOTE_E4,214, NOTE_GS4,214, NOTE_B4,214, NOTE_B3,214, NOTE_DS4,214,
 NOTE_FS4,214, NOTE_B4,214, NOTE_E4,214, NOTE_GS4,214, NOTE_B4,214, NOTE_E5,214, NOTE_DS4,214, NOTE_FS4,214,
 NOTE_B4,214, NOTE_DS5,214, NOTE_CS4,214, NOTE_E4,214, NOTE_GS4,214, NOTE_B4,214, NOTE_B3,214, NOTE_DS4,214,
 NOTE_FS4,214, NOTE_B4,214, NOTE_E4,214, NOTE_E5,214, NOTE_FS4,214, NOTE_FS5,214, NOTE_DS4,214, NOTE_DS5,214,
 NOTE_GS4,214, NOTE_GS5,214, NOTE_CS4,214, NOTE_CS5,214, NOTE_FS4,214, NOTE_FS5,214, NOTE_B3,214, NOTE_B4,214,
 NOTE_B3,214, NOTE_B4,214, NOTE_E4,214, NOTE_E5,214, NOTE_FS4,214, NOTE_FS5,214, NOTE_DS4,214, NOTE_DS5,214,
 NOTE_GS4,214, NOTE_GS5,214, NOTE_CS4,214, NOTE_CS5,214, NOTE_FS4,214, NOTE_FS5,214, NOTE_B3,214, NOTE_B4,214,
 NOTE_B3,214, NOTE_B4,214, NOTE_E4,214, NOTE_E5,214, NOTE_FS4,214, NOTE_FS5,214, NOTE_DS4,214, NOTE_DS5,214,
 NOTE_GS4,214, NOTE_GS5,214, NOTE_CS4,214, NOTE_CS5,214, NOTE_FS4,214, NOTE_FS5,214, NOTE_B3,214, NOTE_B4,214,
 NOTE_B3,214, NOTE_B4,214, NOTE_E4,214, NOTE_E5,214, NOTE_FS4,214, NOTE_FS5,214, NOTE_DS4,214, NOTE_DS5,214,
 NOTE_GS4,214, NOTE_GS5,214, NOTE_CS4,214, NOTE_CS5,214, NOTE_FS4,214, NOTE_FS5,214, NOTE_B3,214, NOTE_B4,214,
 NOTE_B3,214, NOTE_B4,214, NOTE_E4,214, NOTE_GS4,214, NOTE_B4,214, NOTE_E5,214, NOTE_DS4,214, NOTE_FS4,214,
 NOTE_B4,214, NOTE_DS5,214, NOTE_CS4,214, NOTE_E4,214, NOTE_GS4,214, NOTE_B4,214, NOTE_B3,214, NOTE_DS4,214,
 NOTE_FS4,214, NOTE_B4,214, NOTE_E4,214, NOTE_GS4,214, NOTE_B4,214, NOTE_E5,214, NOTE_DS4,214, NOTE_FS4,214,
 NOTE_B4,214, NOTE_DS5,214, NOTE_CS4,214, NOTE_E4,214, NOTE_GS4,214, NOTE_B4,214, NOTE_B3,214, NOTE_DS4,214,
 NOTE_FS4,214, NOTE_B4,214, NOTE_E4,214, NOTE_GS4,214, NOTE_B4,214, NOTE_E5,214, NOTE_DS4,214, NOTE_FS4,214,
 NOTE_B4,214, NOTE_DS5,214, NOTE_CS4,214, NOTE_E4,214, NOTE_GS4,214, NOTE_B4,214, NOTE_B3,214, NOTE_DS4,214,
 NOTE_FS4,214, NOTE_B4,214, NOTE_E4,214, NOTE_GS4,214, NOTE_B4,214, NOTE_E5,214, NOTE_DS4,214, NOTE_FS4,214,
 NOTE_B4,214, NOTE_DS5,214, NOTE_CS4,214, NOTE_E4,214, NOTE_GS4,214, NOTE_B4,214, NOTE_B3,214, NOTE_DS4,214,
 NOTE_FS4,214, NOTE_B4,214, NOTE_DS6,107, NOTE_E6,107, NOTE_FS6,214, NOTE_B6,214, NOTE_DS6,107, NOTE_E6,107,
 NOTE_FS6,107, NOTE_B6,107, NOTE_CS7,107, NOTE_DS7,107, NOTE_CS7,107, NOTE_AS6,107, NOTE_B6,214, NOTE_FS6,214,
 NOTE_DS6,107, NOTE_E6,107, NOTE_FS6,214, NOTE_B6,107, NOTE_CS7,214, NOTE_AS6,107, NOTE_B6,107, NOTE_CS7,107,
 NOTE_E7,107, NOTE_DS7,107, NOTE_E7,107, NOTE_CS7,107,
 TONES_END
};
